<svg version="1.1" id="Layer_1" xmlns="http://www.w3.org/2000/svg" xmlns:xlink="http://www.w3.org/1999/xlink" x="0px" y="0px"
	 viewBox="0 0 234.76 170.69" style="enable-background:new 0 0 234.76 170.69;" xml:space="preserve">
<style type="text/css">
	.st0{fill:#FFFFFF;}
</style>
<path class="st0" d="M197.46,95.86c-0.98,0-1.97,0-2.95,0c-60.57,0-121.13,0-181.7-0.01c-1.58,0-3.2,0.04-4.72-0.31
	c-5.01-1.14-8.56-6.21-8.04-11.19c0.58-5.44,4.66-9.42,10-9.72c1.08-0.06,2.17-0.04,3.25-0.04c60.4,0,120.8,0,181.2,0
	c0.98,0,1.97,0,3.64,0c-1.01-1.09-1.62-1.79-2.27-2.44c-17.79-17.79-35.59-35.57-53.36-53.38c-5.78-5.79-4.55-14.44,2.46-17.73
	c4.13-1.94,8.74-1.15,12.2,2.25c5.11,5.02,10.15,10.12,15.21,15.18c19.38,19.38,38.76,38.76,58.14,58.15
	c5.65,5.65,5.65,11.55,0,17.2c-24.33,24.33-48.66,48.65-72.98,73c-3.11,3.12-6.65,4.66-11.06,3.47
	c-7.59-2.04-10.44-11.18-5.37-17.17c0.59-0.7,1.26-1.33,1.91-1.97c17.61-17.62,35.22-35.23,52.85-52.83
	c0.64-0.63,1.47-1.07,2.22-1.59C197.89,96.44,197.67,96.15,197.46,95.86z"/>
</svg>